<mxfile host="app.diagrams.net" agent="Mozilla/5.0 (X11; Linux x86_64) AppleWebKit/537.36 (KHTML, like Gecko) Chrome/136.0.0.0 Safari/537.36" version="26.2.14">
  <diagram name="Page-1" id="_1b1k5R42vikk6GalNAn">
    <mxGraphModel dx="3565" dy="2990" grid="1" gridSize="10" guides="1" tooltips="1" connect="1" arrows="1" fold="1" page="1" pageScale="1" pageWidth="850" pageHeight="1100" math="0" shadow="0">
      <root>
        <mxCell id="0" />
        <mxCell id="1" parent="0" />
        <mxCell id="UFTa5E6cyiAc2rrb31NS-2" value="" style="ellipse;whiteSpace=wrap;html=1;aspect=fixed;" vertex="1" parent="1">
          <mxGeometry x="160" y="330" width="30" height="30" as="geometry" />
        </mxCell>
        <mxCell id="UFTa5E6cyiAc2rrb31NS-12" value="" style="ellipse;whiteSpace=wrap;html=1;aspect=fixed;" vertex="1" parent="1">
          <mxGeometry x="160" y="370" width="30" height="30" as="geometry" />
        </mxCell>
        <mxCell id="UFTa5E6cyiAc2rrb31NS-13" value="" style="ellipse;whiteSpace=wrap;html=1;aspect=fixed;" vertex="1" parent="1">
          <mxGeometry x="160" y="410" width="30" height="30" as="geometry" />
        </mxCell>
        <mxCell id="UFTa5E6cyiAc2rrb31NS-15" value="" style="ellipse;whiteSpace=wrap;html=1;aspect=fixed;" vertex="1" parent="1">
          <mxGeometry x="160" y="450" width="30" height="30" as="geometry" />
        </mxCell>
        <mxCell id="UFTa5E6cyiAc2rrb31NS-16" value="" style="ellipse;whiteSpace=wrap;html=1;aspect=fixed;" vertex="1" parent="1">
          <mxGeometry x="160" y="490" width="30" height="30" as="geometry" />
        </mxCell>
        <mxCell id="UFTa5E6cyiAc2rrb31NS-17" value="" style="ellipse;whiteSpace=wrap;html=1;aspect=fixed;" vertex="1" parent="1">
          <mxGeometry x="160" y="530" width="30" height="30" as="geometry" />
        </mxCell>
        <mxCell id="UFTa5E6cyiAc2rrb31NS-18" value="" style="ellipse;whiteSpace=wrap;html=1;aspect=fixed;" vertex="1" parent="1">
          <mxGeometry x="160" y="570" width="30" height="30" as="geometry" />
        </mxCell>
        <mxCell id="UFTa5E6cyiAc2rrb31NS-19" value="" style="ellipse;whiteSpace=wrap;html=1;aspect=fixed;" vertex="1" parent="1">
          <mxGeometry x="160" y="610" width="30" height="30" as="geometry" />
        </mxCell>
        <mxCell id="UFTa5E6cyiAc2rrb31NS-20" value="" style="ellipse;whiteSpace=wrap;html=1;aspect=fixed;" vertex="1" parent="1">
          <mxGeometry x="160" y="650" width="30" height="30" as="geometry" />
        </mxCell>
        <mxCell id="UFTa5E6cyiAc2rrb31NS-21" value="" style="ellipse;whiteSpace=wrap;html=1;aspect=fixed;" vertex="1" parent="1">
          <mxGeometry x="160" y="690" width="30" height="30" as="geometry" />
        </mxCell>
        <mxCell id="UFTa5E6cyiAc2rrb31NS-22" value="" style="ellipse;whiteSpace=wrap;html=1;aspect=fixed;" vertex="1" parent="1">
          <mxGeometry x="160" y="730" width="30" height="30" as="geometry" />
        </mxCell>
        <mxCell id="UFTa5E6cyiAc2rrb31NS-23" value="" style="ellipse;whiteSpace=wrap;html=1;aspect=fixed;" vertex="1" parent="1">
          <mxGeometry x="160" y="770" width="30" height="30" as="geometry" />
        </mxCell>
        <mxCell id="UFTa5E6cyiAc2rrb31NS-36" value="" style="ellipse;whiteSpace=wrap;html=1;aspect=fixed;" vertex="1" parent="1">
          <mxGeometry x="160" y="-110" width="30" height="30" as="geometry" />
        </mxCell>
        <mxCell id="UFTa5E6cyiAc2rrb31NS-37" value="" style="ellipse;whiteSpace=wrap;html=1;aspect=fixed;" vertex="1" parent="1">
          <mxGeometry x="160" y="-70" width="30" height="30" as="geometry" />
        </mxCell>
        <mxCell id="UFTa5E6cyiAc2rrb31NS-38" value="" style="ellipse;whiteSpace=wrap;html=1;aspect=fixed;" vertex="1" parent="1">
          <mxGeometry x="160" y="-30" width="30" height="30" as="geometry" />
        </mxCell>
        <mxCell id="UFTa5E6cyiAc2rrb31NS-39" value="" style="ellipse;whiteSpace=wrap;html=1;aspect=fixed;" vertex="1" parent="1">
          <mxGeometry x="160" y="10" width="30" height="30" as="geometry" />
        </mxCell>
        <mxCell id="UFTa5E6cyiAc2rrb31NS-40" value="" style="ellipse;whiteSpace=wrap;html=1;aspect=fixed;" vertex="1" parent="1">
          <mxGeometry x="160" y="50" width="30" height="30" as="geometry" />
        </mxCell>
        <mxCell id="UFTa5E6cyiAc2rrb31NS-41" value="" style="ellipse;whiteSpace=wrap;html=1;aspect=fixed;" vertex="1" parent="1">
          <mxGeometry x="160" y="90" width="30" height="30" as="geometry" />
        </mxCell>
        <mxCell id="UFTa5E6cyiAc2rrb31NS-42" value="" style="ellipse;whiteSpace=wrap;html=1;aspect=fixed;" vertex="1" parent="1">
          <mxGeometry x="160" y="130" width="30" height="30" as="geometry" />
        </mxCell>
        <mxCell id="UFTa5E6cyiAc2rrb31NS-43" value="" style="ellipse;whiteSpace=wrap;html=1;aspect=fixed;" vertex="1" parent="1">
          <mxGeometry x="160" y="170" width="30" height="30" as="geometry" />
        </mxCell>
        <mxCell id="UFTa5E6cyiAc2rrb31NS-44" value="" style="ellipse;whiteSpace=wrap;html=1;aspect=fixed;" vertex="1" parent="1">
          <mxGeometry x="160" y="210" width="30" height="30" as="geometry" />
        </mxCell>
        <mxCell id="UFTa5E6cyiAc2rrb31NS-45" value="" style="ellipse;whiteSpace=wrap;html=1;aspect=fixed;" vertex="1" parent="1">
          <mxGeometry x="160" y="250" width="30" height="30" as="geometry" />
        </mxCell>
        <mxCell id="UFTa5E6cyiAc2rrb31NS-46" value="" style="ellipse;whiteSpace=wrap;html=1;aspect=fixed;" vertex="1" parent="1">
          <mxGeometry x="160" y="290" width="30" height="30" as="geometry" />
        </mxCell>
        <mxCell id="UFTa5E6cyiAc2rrb31NS-47" value="" style="ellipse;whiteSpace=wrap;html=1;aspect=fixed;" vertex="1" parent="1">
          <mxGeometry x="160" y="330" width="30" height="30" as="geometry" />
        </mxCell>
        <mxCell id="UFTa5E6cyiAc2rrb31NS-52" value="" style="ellipse;whiteSpace=wrap;html=1;aspect=fixed;" vertex="1" parent="1">
          <mxGeometry x="160" y="810" width="30" height="30" as="geometry" />
        </mxCell>
        <mxCell id="UFTa5E6cyiAc2rrb31NS-53" value="" style="ellipse;whiteSpace=wrap;html=1;aspect=fixed;" vertex="1" parent="1">
          <mxGeometry x="160" y="850" width="30" height="30" as="geometry" />
        </mxCell>
        <mxCell id="UFTa5E6cyiAc2rrb31NS-54" value="" style="ellipse;whiteSpace=wrap;html=1;aspect=fixed;" vertex="1" parent="1">
          <mxGeometry x="160" y="890" width="30" height="30" as="geometry" />
        </mxCell>
        <mxCell id="UFTa5E6cyiAc2rrb31NS-55" value="" style="ellipse;whiteSpace=wrap;html=1;aspect=fixed;" vertex="1" parent="1">
          <mxGeometry x="160" y="930" width="30" height="30" as="geometry" />
        </mxCell>
        <mxCell id="UFTa5E6cyiAc2rrb31NS-58" value="" style="ellipse;whiteSpace=wrap;html=1;aspect=fixed;" vertex="1" parent="1">
          <mxGeometry x="840" y="630" width="30" height="30" as="geometry" />
        </mxCell>
        <mxCell id="UFTa5E6cyiAc2rrb31NS-59" value="" style="ellipse;whiteSpace=wrap;html=1;aspect=fixed;" vertex="1" parent="1">
          <mxGeometry x="840" y="670" width="30" height="30" as="geometry" />
        </mxCell>
        <mxCell id="UFTa5E6cyiAc2rrb31NS-60" value="" style="ellipse;whiteSpace=wrap;html=1;aspect=fixed;" vertex="1" parent="1">
          <mxGeometry x="840" y="710" width="30" height="30" as="geometry" />
        </mxCell>
        <mxCell id="UFTa5E6cyiAc2rrb31NS-61" value="" style="ellipse;whiteSpace=wrap;html=1;aspect=fixed;" vertex="1" parent="1">
          <mxGeometry x="840" y="750" width="30" height="30" as="geometry" />
        </mxCell>
        <mxCell id="UFTa5E6cyiAc2rrb31NS-62" value="" style="ellipse;whiteSpace=wrap;html=1;aspect=fixed;" vertex="1" parent="1">
          <mxGeometry x="840" y="190" width="30" height="30" as="geometry" />
        </mxCell>
        <mxCell id="UFTa5E6cyiAc2rrb31NS-63" value="" style="ellipse;whiteSpace=wrap;html=1;aspect=fixed;" vertex="1" parent="1">
          <mxGeometry x="840" y="230" width="30" height="30" as="geometry" />
        </mxCell>
        <mxCell id="UFTa5E6cyiAc2rrb31NS-64" value="" style="ellipse;whiteSpace=wrap;html=1;aspect=fixed;" vertex="1" parent="1">
          <mxGeometry x="840" y="270" width="30" height="30" as="geometry" />
        </mxCell>
        <mxCell id="UFTa5E6cyiAc2rrb31NS-65" value="" style="ellipse;whiteSpace=wrap;html=1;aspect=fixed;" vertex="1" parent="1">
          <mxGeometry x="840" y="310" width="30" height="30" as="geometry" />
        </mxCell>
        <mxCell id="UFTa5E6cyiAc2rrb31NS-66" value="" style="ellipse;whiteSpace=wrap;html=1;aspect=fixed;" vertex="1" parent="1">
          <mxGeometry x="840" y="350" width="30" height="30" as="geometry" />
        </mxCell>
        <mxCell id="UFTa5E6cyiAc2rrb31NS-67" value="" style="ellipse;whiteSpace=wrap;html=1;aspect=fixed;" vertex="1" parent="1">
          <mxGeometry x="840" y="390" width="30" height="30" as="geometry" />
        </mxCell>
        <mxCell id="UFTa5E6cyiAc2rrb31NS-68" value="" style="ellipse;whiteSpace=wrap;html=1;aspect=fixed;" vertex="1" parent="1">
          <mxGeometry x="840" y="430" width="30" height="30" as="geometry" />
        </mxCell>
        <mxCell id="UFTa5E6cyiAc2rrb31NS-69" value="" style="ellipse;whiteSpace=wrap;html=1;aspect=fixed;" vertex="1" parent="1">
          <mxGeometry x="840" y="470" width="30" height="30" as="geometry" />
        </mxCell>
        <mxCell id="UFTa5E6cyiAc2rrb31NS-70" value="" style="ellipse;whiteSpace=wrap;html=1;aspect=fixed;" vertex="1" parent="1">
          <mxGeometry x="840" y="510" width="30" height="30" as="geometry" />
        </mxCell>
        <mxCell id="UFTa5E6cyiAc2rrb31NS-71" value="" style="ellipse;whiteSpace=wrap;html=1;aspect=fixed;" vertex="1" parent="1">
          <mxGeometry x="840" y="550" width="30" height="30" as="geometry" />
        </mxCell>
        <mxCell id="UFTa5E6cyiAc2rrb31NS-72" value="" style="ellipse;whiteSpace=wrap;html=1;aspect=fixed;" vertex="1" parent="1">
          <mxGeometry x="840" y="590" width="30" height="30" as="geometry" />
        </mxCell>
        <mxCell id="UFTa5E6cyiAc2rrb31NS-73" value="" style="ellipse;whiteSpace=wrap;html=1;aspect=fixed;" vertex="1" parent="1">
          <mxGeometry x="840" y="630" width="30" height="30" as="geometry" />
        </mxCell>
        <mxCell id="UFTa5E6cyiAc2rrb31NS-74" value="" style="ellipse;whiteSpace=wrap;html=1;aspect=fixed;" vertex="1" parent="1">
          <mxGeometry x="1450" y="440" width="30" height="30" as="geometry" />
        </mxCell>
        <mxCell id="UFTa5E6cyiAc2rrb31NS-75" value="" style="ellipse;whiteSpace=wrap;html=1;aspect=fixed;" vertex="1" parent="1">
          <mxGeometry x="1450" y="480" width="30" height="30" as="geometry" />
        </mxCell>
        <mxCell id="UFTa5E6cyiAc2rrb31NS-76" value="&lt;div style=&quot;color: rgb(204, 204, 204); background-color: rgb(31, 31, 31); font-family: &amp;quot;Droid Sans Mono&amp;quot;, &amp;quot;monospace&amp;quot;, monospace; font-size: 15.8px; line-height: 21px; white-space: pre;&quot;&gt; &lt;span style=&quot;color: #4ec9b0;&quot;&gt;std&lt;/span&gt;::&lt;span style=&quot;color: #4ec9b0;&quot;&gt;vector&lt;/span&gt;&lt;span style=&quot;color: #d4d4d4;&quot;&gt;&amp;lt;&lt;/span&gt;&lt;span style=&quot;color: #569cd6;&quot;&gt;double&lt;/span&gt;&lt;span style=&quot;color: #d4d4d4;&quot;&gt;&amp;gt;&lt;/span&gt; &lt;span style=&quot;color: #9cdcfe;&quot;&gt;input&lt;/span&gt;;&lt;/div&gt;" style="rounded=0;whiteSpace=wrap;html=1;rotation=90;" vertex="1" parent="1">
          <mxGeometry x="43.75" y="1180" width="262.5" height="30" as="geometry" />
        </mxCell>
        <mxCell id="UFTa5E6cyiAc2rrb31NS-77" value="&lt;div style=&quot;color: rgb(204, 204, 204); background-color: rgb(31, 31, 31); font-family: &amp;quot;Droid Sans Mono&amp;quot;, &amp;quot;monospace&amp;quot;, monospace; font-size: 15.8px; line-height: 21px; white-space: pre;&quot;&gt;&lt;div style=&quot;color: rgb(204, 204, 204); background-color: rgb(31, 31, 31); font-size: 15.8px; line-height: 21px;&quot;&gt;&lt;div&gt;    &lt;span style=&quot;color: #4ec9b0;&quot;&gt;std&lt;/span&gt;::&lt;span style=&quot;color: #4ec9b0;&quot;&gt;vector&lt;/span&gt;&lt;span style=&quot;color: #d4d4d4;&quot;&gt;&amp;lt;&lt;/span&gt;&lt;span style=&quot;color: #569cd6;&quot;&gt;double&lt;/span&gt;&lt;span style=&quot;color: #d4d4d4;&quot;&gt;&amp;gt;&lt;/span&gt; &lt;span style=&quot;color: #9cdcfe;&quot;&gt;hidden&lt;/span&gt;;&lt;/div&gt;&lt;div&gt;&lt;/div&gt;&lt;/div&gt;&lt;/div&gt;" style="rounded=0;whiteSpace=wrap;html=1;rotation=90;" vertex="1" parent="1">
          <mxGeometry x="700" y="1180" width="296.25" height="30" as="geometry" />
        </mxCell>
        <mxCell id="UFTa5E6cyiAc2rrb31NS-78" value="&lt;div style=&quot;color: rgb(204, 204, 204); background-color: rgb(31, 31, 31); font-family: &amp;quot;Droid Sans Mono&amp;quot;, &amp;quot;monospace&amp;quot;, monospace; font-size: 15.8px; line-height: 21px; white-space: pre;&quot;&gt;&lt;div style=&quot;color: rgb(204, 204, 204); background-color: rgb(31, 31, 31); font-size: 15.8px; line-height: 21px;&quot;&gt;&lt;div&gt;&lt;div style=&quot;color: rgb(204, 204, 204); background-color: rgb(31, 31, 31); font-size: 15.8px; line-height: 21px;&quot;&gt;&lt;div&gt;    &lt;span style=&quot;color: rgb(78, 201, 176);&quot;&gt;std&lt;/span&gt;::&lt;span style=&quot;color: rgb(78, 201, 176);&quot;&gt;vector&lt;/span&gt;&lt;span style=&quot;color: rgb(212, 212, 212);&quot;&gt;&amp;lt;&lt;/span&gt;&lt;span style=&quot;color: rgb(86, 156, 214);&quot;&gt;double&lt;/span&gt;&lt;span style=&quot;color: rgb(212, 212, 212);&quot;&gt;&amp;gt;&lt;/span&gt; &lt;span style=&quot;color: rgb(156, 220, 254);&quot;&gt;output&lt;/span&gt;;&lt;/div&gt;&lt;/div&gt;&lt;/div&gt;&lt;div&gt;&lt;/div&gt;&lt;/div&gt;&lt;/div&gt;" style="rounded=0;whiteSpace=wrap;html=1;rotation=90;" vertex="1" parent="1">
          <mxGeometry x="1313.75" y="1180" width="302.5" height="30" as="geometry" />
        </mxCell>
        <mxCell id="UFTa5E6cyiAc2rrb31NS-79" value="&lt;div style=&quot;color: rgb(204, 204, 204); background-color: rgb(31, 31, 31); font-family: &amp;quot;Droid Sans Mono&amp;quot;, &amp;quot;monospace&amp;quot;, monospace; font-size: 15.8px; line-height: 21px; white-space: pre;&quot;&gt;&lt;div&gt;    &lt;span style=&quot;color: #4ec9b0;&quot;&gt;std&lt;/span&gt;::&lt;span style=&quot;color: #4ec9b0;&quot;&gt;vector&lt;/span&gt;&lt;span style=&quot;color: #d4d4d4;&quot;&gt;&amp;lt;&lt;/span&gt;&lt;span style=&quot;color: #4ec9b0;&quot;&gt;std&lt;/span&gt;::&lt;span style=&quot;color: #4ec9b0;&quot;&gt;vector&lt;/span&gt;&lt;span style=&quot;color: #d4d4d4;&quot;&gt;&amp;lt;&lt;/span&gt;&lt;span style=&quot;color: #569cd6;&quot;&gt;double&lt;/span&gt;&lt;span style=&quot;color: #d4d4d4;&quot;&gt;&amp;gt;&amp;gt;&lt;/span&gt; &lt;span style=&quot;color: #9cdcfe;&quot;&gt;weightInput_Hidden&lt;/span&gt;;&lt;/div&gt;&lt;div&gt;&lt;/div&gt;&lt;/div&gt;" style="rounded=0;whiteSpace=wrap;html=1;" vertex="1" parent="1">
          <mxGeometry x="450" y="-150" width="170" height="20" as="geometry" />
        </mxCell>
        <mxCell id="UFTa5E6cyiAc2rrb31NS-80" value="&lt;div style=&quot;color: rgb(204, 204, 204); background-color: rgb(31, 31, 31); font-family: &amp;quot;Droid Sans Mono&amp;quot;, &amp;quot;monospace&amp;quot;, monospace; font-size: 15.8px; line-height: 21px; white-space: pre;&quot;&gt;&lt;div&gt;&lt;div style=&quot;color: rgb(204, 204, 204); background-color: rgb(31, 31, 31); font-size: 15.8px; line-height: 21px;&quot;&gt;&lt;div&gt;    &lt;span style=&quot;color: #4ec9b0;&quot;&gt;std&lt;/span&gt;::&lt;span style=&quot;color: #4ec9b0;&quot;&gt;vector&lt;/span&gt;&lt;span style=&quot;color: #d4d4d4;&quot;&gt;&amp;lt;&lt;/span&gt;&lt;span style=&quot;color: #4ec9b0;&quot;&gt;std&lt;/span&gt;::&lt;span style=&quot;color: #4ec9b0;&quot;&gt;vector&lt;/span&gt;&lt;span style=&quot;color: #d4d4d4;&quot;&gt;&amp;lt;&lt;/span&gt;&lt;span style=&quot;color: #569cd6;&quot;&gt;double&lt;/span&gt;&lt;span style=&quot;color: #d4d4d4;&quot;&gt;&amp;gt;&amp;gt;&lt;/span&gt; &lt;span style=&quot;color: #9cdcfe;&quot;&gt;weightHidden_Output&lt;/span&gt;;&lt;/div&gt;&lt;br&gt;&lt;/div&gt;&lt;/div&gt;&lt;div&gt;&lt;/div&gt;&lt;/div&gt;" style="rounded=0;whiteSpace=wrap;html=1;" vertex="1" parent="1">
          <mxGeometry x="1100" y="-150" width="170" height="20" as="geometry" />
        </mxCell>
      </root>
    </mxGraphModel>
  </diagram>
</mxfile>
